<svg width="528" height="449" viewBox="5 5 518 439" fill="none" xmlns="http://www.w3.org/2000/svg">
<path d="M134.029 0.5V71.2085C134.029 73.7094 135.363 76.0203 137.529 77.2707L260 147.979C262.166 149.23 264.834 149.23 267 147.979L389.471 77.2707C391.637 76.0203 392.971 73.7094 392.971 71.2085V0.5" stroke="#222222" stroke-width="10"/>
<path d="M392.942 448.5L392.942 377.791C392.942 375.291 391.607 372.98 389.442 371.729L266.971 301.021C264.805 299.77 262.137 299.77 259.971 301.021L137.5 371.729C135.334 372.98 134 375.291 134 377.791L134 448.5" stroke="#222222" stroke-width="10"/>
<path d="M131 77.0207C133.166 75.7703 135.834 75.7703 138 77.0207L260.471 147.729C262.637 148.98 263.971 151.291 263.971 153.791V295.209C263.971 297.709 262.637 300.02 260.471 301.271L138 371.979C135.834 373.23 133.166 373.23 131 371.979L8.52921 301.271C6.3634 300.02 5.02921 297.709 5.02921 295.209V153.791C5.02921 151.291 6.3634 148.98 8.52921 147.729L131 77.0207Z" stroke="#222222" stroke-width="10"/>
<path d="M390 77.0207C392.166 75.7703 394.834 75.7703 397 77.0207L519.471 147.729C521.637 148.98 522.971 151.291 522.971 153.791V295.209C522.971 297.709 521.637 300.02 519.471 301.271L397 371.979C394.834 373.23 392.166 373.23 390 371.979L267.529 301.271C265.363 300.02 264.029 297.709 264.029 295.209V153.791C264.029 151.291 265.363 148.98 267.529 147.729L390 77.0207Z" stroke="#222222" stroke-width="10"/>
<path d="M134.029 0.5V71.2085C134.029 73.7094 135.363 76.0203 137.529 77.2707L260 147.979C262.166 149.23 264.834 149.23 267 147.979L389.471 77.2707C391.637 76.0203 392.971 73.7094 392.971 71.2085V0.5" stroke="#222222" stroke-width="10"/>
<path d="M392.942 448.5L392.942 377.791C392.942 375.291 391.607 372.98 389.442 371.729L266.971 301.021C264.805 299.77 262.137 299.77 259.971 301.021L137.5 371.729C135.334 372.98 134 375.291 134 377.791L134 448.5" stroke="#222222" stroke-width="10"/>
<path d="M131 77.0207C133.166 75.7703 135.834 75.7703 138 77.0207L260.471 147.729C262.637 148.98 263.971 151.291 263.971 153.791V295.209C263.971 297.709 262.637 300.02 260.471 301.271L138 371.979C135.834 373.23 133.166 373.23 131 371.979L8.52921 301.271C6.3634 300.02 5.02921 297.709 5.02921 295.209V153.791C5.02921 151.291 6.3634 148.98 8.52921 147.729L131 77.0207Z" stroke="#222222" stroke-width="10"/>
<path d="M390 77.0207C392.166 75.7703 394.834 75.7703 397 77.0207L519.471 147.729C521.637 148.98 522.971 151.291 522.971 153.791V295.209C522.971 297.709 521.637 300.02 519.471 301.271L397 371.979C394.834 373.23 392.166 373.23 390 371.979L267.529 301.271C265.363 300.02 264.029 297.709 264.029 295.209V153.791C264.029 151.291 265.363 148.98 267.529 147.729L390 77.0207Z" stroke="#222222" stroke-width="10"/>
</svg>
